<!DOCTYPE svg PUBLIC "-//W3C//DTD SVG 1.1//EN" "http://www.w3.org/Graphics/SVG/1.1/DTD/svg11.dtd">
<!-- Uploaded to: SVG Repo, www.svgrepo.com, Transformed by: SVG Repo Mixer Tools -->
<svg width="800px" height="800px" viewBox="-15.36 -15.36 222.72 222.72" xmlns="http://www.w3.org/2000/svg" fill="none" stroke="#11c76f">
<g id="SVGRepo_bgCarrier" stroke-width="0">
<rect x="-15.36" y="-15.36" width="222.72" height="222.72" rx="0" fill="#ffffff" strokewidth="0"/>
</g>
<g id="SVGRepo_tracerCarrier" stroke-linecap="round" stroke-linejoin="round"/>
<g id="SVGRepo_iconCarrier">
<path stroke="#11c76f" stroke-linejoin="round" stroke-width="8.448" d="M45.259 77.594v34.86h22.855a18.587 18.587 0 0 0 12.97-5.224 17.001 17.001 0 0 0 3.843-5.577 16.92 16.92 0 0 0-3.843-18.83 18.591 18.591 0 0 0-12.97-5.229H45.26ZM22 161.996V77.594h23.22V56h22.894A40.275 40.275 0 0 1 96.19 67.385a38.386 38.386 0 0 1 8.735 12.624 38.221 38.221 0 0 1 0 30.034 38.383 38.383 0 0 1-8.735 12.624 40.274 40.274 0 0 1-28.076 11.382H45.26V162L22 161.996Z" clip-rule="evenodd"/>
<path stroke="#11c76f" stroke-linecap="round" stroke-linejoin="round" stroke-width="8.448" d="M170 30h-42v42h42V30Z"/>
<rect width="12" height="12" x="143" y="45" fill="#11c76f" rx="2"/>
</g>
</svg>